<svg t="1693549881578" class="icon" viewBox="0 0 1084 1024" version="1.1" xmlns="http://www.w3.org/2000/svg" p-id="6957" width="64" height="64"><path d="M398.185412 876.664471c0 18.371765 16.323765 34.002824 36.050823 34.002823h216.907294c19.727059 0 36.050824-14.968471 36.050824-34.032941 0-18.341647-16.323765-33.972706-36.050824-33.972706h-216.907294c-20.419765 0-36.050824 14.968471-36.050823 34.002824z m72.071529 100.623058c0 18.371765 16.323765 34.032941 36.050824 34.032942h72.071529c19.727059 0 36.050824-14.968471 36.050824-34.032942 0-18.371765-16.323765-34.002824-36.050824-34.002823h-72.071529c-19.727059 0.692706-36.050824 15.661176-36.050824 34.032941zM217.298824 506.066824c0 167.273412 145.528471 303.284706 325.059764 303.284705 179.501176 0 325.029647-136.011294 325.029647-303.284705s-145.528471-303.284706-325.029647-303.284706c-179.531294 0-325.059765 136.011294-325.059764 303.284706z m289.008941-471.250824v67.343059c0 18.371765 16.323765 33.972706 36.050823 33.972706 19.696941 0 36.020706-14.938353 36.020706-33.972706V34.816c0-18.371765-16.323765-34.002824-36.020706-34.002824-19.727059 0-36.050824 14.968471-36.050823 34.032942z m541.274353 386.921412H975.510588c-19.727059 0-36.050824 14.968471-36.050823 34.032941 0 18.341647 16.323765 33.972706 36.050823 33.972706h72.07153c19.727059 0 36.050824-14.968471 36.050823-34.002824s-15.661176-34.002824-36.050823-34.002823z m-938.405647 0H37.104941c-19.727059 0-36.020706 14.968471-36.020706 34.032941 0 18.341647 16.293647 33.972706 36.020706 33.972706h72.07153c19.727059 0 36.050824-14.968471 36.050823-34.002824s-16.323765-34.002824-36.050823-34.002823z m775.890823-266.541177l-51.019294 47.585883a31.804235 31.804235 0 0 0 0 47.585882c14.305882 12.950588 36.743529 12.950588 51.019294 0l50.989177-47.585882a31.804235 31.804235 0 0 0 0-47.585883c-13.583059-12.950588-36.743529-12.950588-50.989177 0z m-685.447529 0a38.4 38.4 0 0 0-50.989177 0 31.804235 31.804235 0 0 0 0 47.585883l50.989177 47.585882c14.275765 12.950588 36.743529 12.950588 51.019294 0a31.804235 31.804235 0 0 0 0-47.585882l-51.019294-47.585883z" fill="#FFAA04" p-id="6958"></path></svg>